{
    "asset" : {
        "generator" : "Khronos glTF Blender I/O v1.8.19",
        "version" : "2.0"
    },
    "scene" : 0,
    "scenes" : [
        {
            "name" : "Scene",
            "nodes" : [
                0,
                1
            ]
        }
    ],
    "nodes" : [
        {
            "mesh" : 0,
            "name" : "Curve",
            "rotation" : [
                0.707324743270874,
                0,
                0,
                0.706888735294342
            ],
            "scale" : [
                55.2282600402832,
                55.22825622558594,
                55.22825622558594
            ],
            "translation" : [
                -1.372032642364502,
                0.3191301226615906,
                0.00500620948150754
            ]
        },
        {
            "mesh" : 1,
            "name" : "Curve.001",
            "rotation" : [
                0.707324743270874,
                0,
                0,
                0.706888735294342
            ],
            "scale" : [
                55.2282600402832,
                55.22825622558594,
                55.22825622558594
            ],
            "translation" : [
                -1.372032642364502,
                0.3191301226615906,
                0.00500620948150754
            ]
        }
    ],
    "materials" : [
        {
            "doubleSided" : true,
            "name" : "SVGMat",
            "pbrMetallicRoughness" : {
                "baseColorFactor" : [
                    0,
                    0,
                    0,
                    1
                ],
                "metallicFactor" : 0,
                "roughnessFactor" : 0.20000000298023224
            }
        }
    ],
    "meshes" : [
        {
            "name" : "Curve",
            "primitives" : [
                {
                    "attributes" : {
                        "POSITION" : 0,
                        "NORMAL" : 1,
                        "TEXCOORD_0" : 2
                    },
                    "indices" : 3,
                    "material" : 0
                }
            ]
        },
        {
            "name" : "Curve.001",
            "primitives" : [
                {
                    "attributes" : {
                        "POSITION" : 4,
                        "NORMAL" : 5,
                        "TEXCOORD_0" : 6
                    },
                    "indices" : 7,
                    "material" : 0
                }
            ]
        }
    ],
    "accessors" : [
        {
            "bufferView" : 0,
            "componentType" : 5126,
            "count" : 310,
            "max" : [
                -0.024312756955623627,
                0.009999999776482582,
                0.06938031315803528
            ],
            "min" : [
                -0.07572905719280243,
                -0.009999999776482582,
                0.017974868416786194
            ],
            "type" : "VEC3"
        },
        {
            "bufferView" : 1,
            "componentType" : 5126,
            "count" : 310,
            "type" : "VEC3"
        },
        {
            "bufferView" : 2,
            "componentType" : 5126,
            "count" : 310,
            "type" : "VEC2"
        },
        {
            "bufferView" : 3,
            "componentType" : 5123,
            "count" : 564,
            "type" : "SCALAR"
        },
        {
            "bufferView" : 4,
            "componentType" : 5126,
            "count" : 1166,
            "max" : [
                0.14849676191806793,
                0.009999999776482582,
                0.10117729008197784
            ],
            "min" : [
                -0.08234240859746933,
                -0.009999999776482582,
                -0.09052448719739914
            ],
            "type" : "VEC3"
        },
        {
            "bufferView" : 5,
            "componentType" : 5126,
            "count" : 1166,
            "type" : "VEC3"
        },
        {
            "bufferView" : 6,
            "componentType" : 5126,
            "count" : 1166,
            "type" : "VEC2"
        },
        {
            "bufferView" : 7,
            "componentType" : 5123,
            "count" : 2148,
            "type" : "SCALAR"
        }
    ],
    "bufferViews" : [
        {
            "buffer" : 0,
            "byteLength" : 3720,
            "byteOffset" : 0
        },
        {
            "buffer" : 0,
            "byteLength" : 3720,
            "byteOffset" : 3720
        },
        {
            "buffer" : 0,
            "byteLength" : 2480,
            "byteOffset" : 7440
        },
        {
            "buffer" : 0,
            "byteLength" : 1128,
            "byteOffset" : 9920
        },
        {
            "buffer" : 0,
            "byteLength" : 13992,
            "byteOffset" : 11048
        },
        {
            "buffer" : 0,
            "byteLength" : 13992,
            "byteOffset" : 25040
        },
        {
            "buffer" : 0,
            "byteLength" : 9328,
            "byteOffset" : 39032
        },
        {
            "buffer" : 0,
            "byteLength" : 4296,
            "byteOffset" : 48360
        }
    ],
    "buffers" : [
        {
            "byteLength" : 52656,
            "uri" : "data:application/octet-stream;base64,"
        }
    ]
}
